<?xml version="1.0" encoding="UTF-8" standalone="no"?>
<svg width="75px" height="45px" viewBox="0 0 75 45" version="1.1" xmlns="http://www.w3.org/2000/svg" xmlns:xlink="http://www.w3.org/1999/xlink">
    <!-- Generator: Sketch 3.8.3 (29802) - http://www.bohemiancoding.com/sketch -->
    <title>icon_see</title>
    <desc>Created with Sketch.</desc>
    <defs></defs>
    <g id="Home" stroke="none" stroke-width="1" fill="none" fill-rule="evenodd">
        <g id="OPT-2" transform="translate(-553.000000, -865.000000)" stroke="#FF3D6B">
            <g id="icon_see" transform="translate(554.000000, 866.000000)">
                <g id="Group-12">
                    <g id="Page-1">
                        <path d="M37.8732189,43.3282385 C31.4034095,43.3070846 26.387267,42.3500846 21.5427274,40.3700846 C12.8481822,36.8179308 5.86508955,30.8085462 0.591924136,22.3512385 C0.35549352,21.9713154 0.378373902,21.7335462 0.605652365,21.3747769 C7.56586463,10.3561615 17.007073,3.47185385 28.9353789,1.22108462 C43.3218006,-1.49337692 56.021938,2.72723846 66.8390201,13.6705462 C69.1209568,15.9805462 71.0772295,18.6129308 72.8374936,21.4272385 C73.038841,21.7487769 73.0640094,21.9637 72.8512218,22.3004692 C66.0824421,33.0508538 56.9013074,39.7287 45.3360369,42.3881615 C42.4431939,43.0532385 39.5152676,43.3273923 37.8732189,43.3282385 L37.8732189,43.3282385 Z" id="Stroke-1"></path>
                        <path d="M37.3512988,35.4541846 C44.733636,35.5261077 50.9564616,29.4888 51.0404965,22.1721077 C51.1279267,14.5550308 45.156357,8.36964615 37.6382058,8.29095385 C30.1141128,8.21310769 23.8811012,14.1759538 23.7911244,21.5391846 C23.6986012,29.2417231 29.6786593,35.3788769 37.3512988,35.4541846 L37.3512988,35.4541846 Z M51.4827407,21.8852615 C51.4818919,29.5624154 45.1359849,35.8992615 37.4506128,35.8950308 C29.6370663,35.8916462 23.3437872,29.5844154 23.3497291,21.7642615 C23.3548221,14.1048769 29.7389267,7.84418462 37.5397407,7.85095385 C45.166543,7.85856923 51.4835895,14.2148769 51.4827407,21.8852615 L51.4827407,21.8852615 Z" id="Stroke-3" stroke-width="0.7"></path>
                        <path d="M29.5975105,21.8897462 C29.5839291,17.6183615 33.1184872,14.0848231 37.4102081,14.0789 C41.7036267,14.0738231 45.2415802,17.6014385 45.2330919,21.8762077 C45.2229058,26.2051308 41.7579523,29.6608231 37.4237895,29.6625154 C33.0913244,29.6650538 29.6110919,26.2085154 29.5975105,21.8897462 L29.5975105,21.8897462 Z" id="Stroke-5" stroke-width="0.7"></path>
                    </g>
                </g>
            </g>
        </g>
    </g>
</svg>