<?xml version="1.0" encoding="UTF-8" standalone="no"?>
<svg width="59px" height="49px" viewBox="0 0 59 49" version="1.1" xmlns="http://www.w3.org/2000/svg" xmlns:xlink="http://www.w3.org/1999/xlink">
    <!-- Generator: Sketch 3.8.3 (29802) - http://www.bohemiancoding.com/sketch -->
    <title>icon_search</title>
    <desc>Created with Sketch.</desc>
    <defs>
        <polygon id="path-1" points="0 49 59 49 59 0 0 0"></polygon>
    </defs>
    <g id="Home" stroke="none" stroke-width="1" fill="none" fill-rule="evenodd">
        <g id="OPT-2" transform="translate(-134.000000, -861.000000)">
            <g id="icon_search" transform="translate(134.000000, 861.000000)">
                <g id="Page-1">
                    <path d="M50.5,7.5 C50.5,8.052 50.052,8.5 49.5,8.5 C48.948,8.5 48.5,8.052 48.5,7.5 C48.5,6.948 48.948,6.5 49.5,6.5 C50.052,6.5 50.5,6.948 50.5,7.5 L50.5,7.5 Z" id="Stroke-1" stroke="#FF3D6B"></path>
                    <path d="M42.5,7.5 C42.5,8.052 42.052,8.5 41.5,8.5 C40.948,8.5 40.5,8.052 40.5,7.5 C40.5,6.948 40.948,6.5 41.5,6.5 C42.052,6.5 42.5,6.948 42.5,7.5 L42.5,7.5 Z" id="Stroke-3" stroke="#FF3D6B"></path>
                    <path d="M34.5,7.5 C34.5,8.052 34.052,8.5 33.5,8.5 C32.948,8.5 32.5,8.052 32.5,7.5 C32.5,6.948 32.948,6.5 33.5,6.5 C34.052,6.5 34.5,6.948 34.5,7.5 L34.5,7.5 Z" id="Stroke-5" stroke="#FF3D6B"></path>
                    <path d="M0.5,14.5 L58.5,14.5" id="Stroke-7" stroke="#FF3D6B"></path>
                    <mask id="mask-2" fill="white">
                        <use xlink:href="#path-1"></use>
                    </mask>
                    <g id="Clip-10"></g>
                    <polygon id="Stroke-9" stroke="#FF3D6B" mask="url(#mask-2)" points="0.5 48.5 58.5 48.5 58.5 0.5 0.5 0.5"></polygon>
                </g>
                <g id="Page-1" transform="translate(19.000000, 21.000000)">
                    <path d="M15.0878115,14.7585547 C16.7851962,13.0363283 17.6715423,10.9745547 17.6250038,8.56659245 C17.5780423,6.1503283 16.6333115,4.09810189 14.8238115,2.46013962 C11.58685,-0.470426415 6.55646538,-0.5742 3.16381154,2.33934717 C-0.08965,5.13293208 -0.751765385,9.88617736 1.66527308,13.4472717 C2.90785,15.2778377 4.63146538,16.4824415 6.81200385,16.9925925 C9.75873462,17.6816491 12.3940808,17.0017245 14.7514654,15.0877245 C14.90885,15.2558377 15.0543885,15.4218755 15.21135,15.5762906 C17.2632731,17.5915736 19.3164654,19.6056113 21.3700808,21.6196491 C21.4305808,21.6794226 21.4881192,21.7670075 21.5613115,21.7844415 C21.6594654,21.8076868 21.8219269,21.8139132 21.8659269,21.7578755 C21.9209269,21.6885547 21.8904654,21.5482528 21.8815808,21.4399132 C21.8790423,21.4075358 21.8253115,21.3793094 21.79485,21.3494226 C19.8059654,19.4018 17.8166577,17.4541774 15.8290423,15.5057245 C15.5806962,15.2624792 15.3391192,15.0121774 15.0878115,14.7585547" id="Fill-1" fill="#FFFFFF"></path>
                    <path d="M14.7515077,15.0879321 C15.0028154,15.3415547 15.3692,15.7313283 15.6175462,15.9749887 C17.6051615,17.9234415 21.6595077,21.8078943 21.5613538,21.784234 C21.4881615,21.7668 21.4306231,21.6792151 21.3701231,21.6198566 C19.3165077,19.6054038 17.2633154,17.5917811 15.2113923,15.576083 C15.0544308,15.4216679 14.9088923,15.2556302 14.7515077,15.0879321 C12.3941231,17.0019321 9.75877692,17.6818566 6.81204615,16.9923849 C4.63150769,16.4826491 2.90789231,15.2780453 1.66531538,13.4474792 C-0.752146154,9.88596981 -0.0896076923,5.13313962 3.16385385,2.33913962 C6.55650769,-0.573992453 11.5868923,-0.470218868 14.8238538,2.45993208 C16.6333538,4.09830943 17.5780846,6.15053585 17.6250462,8.5668 C17.6715846,10.9743472 16.4488923,13.3657057 14.7515077,15.0879321 L14.7515077,15.0879321 Z" id="Stroke-3" stroke="#FF3D6B"></path>
                </g>
            </g>
        </g>
    </g>
</svg>