<?xml version="1.0" encoding="UTF-8" standalone="no"?>
<svg width="24px" height="24px" viewBox="0 0 24 24" version="1.1" xmlns="http://www.w3.org/2000/svg" xmlns:xlink="http://www.w3.org/1999/xlink">
    <!-- Generator: Sketch 39 (31667) - http://www.bohemiancoding.com/sketch -->
    <title>Fill 1 Copy 2</title>
    <desc>Created with Sketch.</desc>
    <defs></defs>
    <g id="Pricing" stroke="none" stroke-width="1" fill="none" fill-rule="evenodd">
        <g id="PRICING" transform="translate(-334.000000, -832.000000)" fill="#8F94A0">
            <path d="M346,832 C339.371154,832 334,837.371154 334,844 C334,850.628846 339.371154,856 346,856 C352.628846,856 358,850.628846 358,844 C358,837.371154 352.628846,832 346,832 Z M350.851923,839.459615 L343.651923,846.711538 L340.928846,843.988462 L339.901923,845.015385 L343.132692,848.246154 C343.276923,848.390385 343.473077,848.505769 343.646154,848.505769 C343.819231,848.505769 344.009615,848.390385 344.153846,848.251923 L351.867308,840.498077 L350.851923,839.459615 Z M346,855.001924 C339.936538,855.001924 334.998077,850.069231 334.998077,844 C334.998077,837.936538 339.930769,832.998077 346,832.998077 C352.063462,832.998077 357.001923,837.930769 357.001923,844 C357.001923,850.063462 352.063462,855.001924 346,855.001924 L346,855.001924 Z" id="Fill-1-Copy-2"></path>
        </g>
    </g>
</svg>